<svg width="106" height="98" viewBox="0 0 106 98" fill="none" xmlns="http://www.w3.org/2000/svg">
<path d="M56.28 67.75V55.16C55.1981 55.684 54.0121 55.9574 52.81 55.96C51.6198 55.9568 50.4451 55.6905 49.37 55.18V65.61H25C22.6485 65.6126 20.3195 65.1519 18.1461 64.2541C15.9727 63.3564 13.9975 62.0392 12.3334 60.3778C10.6692 58.7165 9.34872 56.7435 8.44732 54.5716C7.54592 52.3997 7.08129 50.0715 7.07998 47.72C7.08528 43.625 8.71506 39.6993 11.6116 36.8046C14.5082 33.9099 18.4349 32.2826 22.53 32.28H36.32V7.51H56.21C59.7172 7.51529 63.0792 8.91086 65.5592 11.3908C68.0391 13.8708 69.4347 17.2328 69.44 20.74H76.34C76.3347 15.4028 74.2122 10.2857 70.4382 6.51179C66.6642 2.73783 61.5472 0.615295 56.21 0.610001H34.21C32.9466 0.609998 31.7349 1.11118 30.8406 2.00356C29.9464 2.89595 29.4426 4.10665 29.44 5.37V25.37H22.53C16.6031 25.3753 10.9203 27.7314 6.72845 31.9214C2.53657 36.1114 0.177925 41.7931 0.169983 47.72C0.177933 54.3001 2.79745 60.608 7.45312 65.2581C12.1088 69.9081 18.4199 72.52 25 72.52H51.51C52.7743 72.5174 53.986 72.014 54.88 71.12C55.7739 70.226 56.2773 69.0143 56.28 67.75V67.75Z" fill="white"/>
<path d="M80.67 25.4H54.12C52.8576 25.4 51.6468 25.9015 50.7542 26.7942C49.8615 27.6868 49.36 28.8976 49.36 30.16V47.92C49.36 47.92 49.36 48.02 49.36 48.07C49.4228 48.9534 49.823 49.7787 50.4775 50.3752C51.1321 50.9717 51.991 51.2936 52.8764 51.2744C53.7618 51.2551 54.6058 50.8961 55.2338 50.2717C55.8618 49.6473 56.2257 48.8053 56.25 47.92V32.31H80.67C83.0376 32.3125 85.3812 32.7846 87.5651 33.6991C89.7489 34.6135 91.7297 35.9522 93.3927 37.6374C95.0556 39.3227 96.3677 41.3212 97.253 43.517C98.1382 45.7129 98.5791 48.0626 98.55 50.43C98.4375 54.5239 96.7238 58.4103 93.7769 61.2543C90.8301 64.0983 86.8853 65.673 82.79 65.64H74.1C73.4732 65.6387 72.8523 65.7612 72.273 66.0004C71.6937 66.2397 71.1673 66.591 70.7241 67.0342C70.2809 67.4774 69.9296 68.0037 69.6904 68.583C69.4511 69.1624 69.3287 69.7832 69.33 70.41V90.41H49.43C45.9229 90.4074 42.5604 89.0123 40.0814 86.5315C37.6025 84.0507 36.21 80.6871 36.21 77.18H29.3C29.3053 82.5172 31.4278 87.6343 35.2018 91.4082C38.9757 95.1822 44.0928 97.3047 49.43 97.31H71.43C72.6943 97.3074 73.906 96.804 74.8 95.91C75.6939 95.016 76.1973 93.8043 76.2 92.54V72.54H82.6C95.16 72.54 105.7 62.26 105.45 49.69C105.314 43.2057 102.644 37.0324 98.0127 32.4924C93.3811 27.9523 87.1557 25.4064 80.67 25.4V25.4Z" fill="white"/>
</svg>
